HIERARCHY
ROOT Hips
{
	OFFSET 0.00000 0.00000 0.00000
	CHANNELS 6 Xposition Yposition Zposition Yrotation Zrotation Xrotation 
	JOINT Lumbar
	{
		OFFSET 0 0 0
		CHANNELS 3 Zrotation Xrotation Yrotation
		JOINT Neck
		{
			OFFSET 0.00 0.2701 0.00
			CHANNELS 3 Zrotation Xrotation Yrotation
			End Site
			{
				OFFSET 0.00 0.1379 0.00
			}
		}
		JOINT RightShoulder
		{
			OFFSET 0.0119 0.2289 0.1181
			CHANNELS 3 Zrotation Xrotation Yrotation
			JOINT RightElbow
			{
				OFFSET 0.00 -0.1475 0.00
				CHANNELS 2 Zrotation Yrotation
				JOINT RightWrist
				{
					OFFSET 0.00 -0.1605 0.00
					CHANNELS 2 Zrotation Xrotation
					End Site
					{
						OFFSET 0.0040 -0.1068 0.0006
					}
				}
			}
		}
		JOINT LeftShoulder
		{
			OFFSET 0.0119 0.2289 -0.1181
			CHANNELS 3 Zrotation Xrotation Yrotation
			JOINT LeftElbow
			{
				OFFSET 0.00 -0.1475 0.00
				CHANNELS 2 Zrotation Yrotation
				JOINT LeftWrist
				{
					OFFSET 0.00 -0.1605 0.00
					CHANNELS 2 Zrotation Xrotation
					End Site
					{
						OFFSET 0.0040 -0.1068 -0.0006
					}
				}
			}
		}
	}
	JOINT RightHip
	{
		OFFSET 0.0316 -0.0424 0.0458
		CHANNELS 3 Zrotation Xrotation Yrotation
		JOINT RightKnee
		{
			OFFSET 0.00 -0.2438 0.00
			CHANNELS 1 Zrotation
			JOINT RightAnkle
			{
				OFFSET 0.00 -0.2449 0.00
				CHANNELS 3 Zrotation Xrotation Yrotation
				End Site
				{
					OFFSET 0.1237 -0.0542 0.0051
				}
			}
		}
	}
	JOINT LeftHip
	{
		OFFSET 0.0316 -0.0424 -0.0458
		CHANNELS 3 Zrotation Xrotation Yrotation
		JOINT LeftKnee
		{
			OFFSET 0.00 -0.2438 0.00
			CHANNELS 1 Zrotation
			JOINT LeftAnkle
			{
				OFFSET 0.00 -0.2449 0.00
				CHANNELS 3 Zrotation Xrotation Yrotation
				End Site
				{
					OFFSET 0.1237 -0.0542 -0.0051
				}
			}
		}
	}
}
MOTION
Frames: 28
Frame Time: 0.02
0.00063 0.00034 -0.0003 26.99396 -25.34486 -3.09264 49.2462 -0.26982 -4.92707 -12.44605 4.09283 -0.40642 -16.54758 -5.80497 -7.52946 19.789 98.90004 12.33481 0.42975 -23.19711 4.78043 10.22058 31.64271 -136.5202 24.08869 -5.7151 40.07894 -4.13381 -6.39689 -20.42782 -7.07111 -4.6723 -3.12905 43.60585 2.60262 -1.70224 -24.80655 -7.66594 4.27599 3.00061
0.00055 0.00027 -2e-05 27.01949 -25.32028 -3.10435 49.17829 -0.26776 -4.90396 -12.37716 4.18152 -0.40717 -16.51108 -5.78383 -7.62647 19.77336 99.16786 12.33308 0.49743 -23.09767 5.23124 8.72883 31.61779 -132.7244 23.05932 -5.15165 40.08282 -4.09744 -6.33291 -20.44542 -7.07213 -4.67632 -3.13302 43.62124 2.68788 -1.43282 -24.82963 -7.65037 4.25759 2.9821
0.00047 0.0002 0.00025 27.04495 -25.29579 -3.11603 49.11055 -0.2657 -4.88095 -12.30841 4.27004 -0.40791 -16.47475 -5.76275 -7.72332 19.7579 99.43486 12.3313 0.56492 -22.99845 5.67999 7.24395 31.59273 -128.94618 22.03453 -4.59087 40.08674 -4.06113 -6.26899 -20.46298 -7.07315 -4.68035 -3.13698 43.63663 2.77296 -1.16397 -24.85265 -7.63483 4.23921 2.96362
0.00039 0.00014 0.00053 27.0704 -25.27128 -3.1277 49.04284 -0.26365 -4.85792 -12.23971 4.35847 -0.40865 -16.43838 -5.74168 -7.82005 19.74232 99.70186 12.32956 0.63239 -22.89929 6.12926 5.75732 31.56784 -125.16346 21.00867 -4.02937 40.09062 -4.02487 -6.20518 -20.48053 -7.07416 -4.68437 -3.14094 43.65198 2.85798 -0.89534 -24.87565 -7.6193 4.22087 2.94516
0.00031 7e-05 0.0008 27.09592 -25.24669 -3.1394 48.97499 -0.2616 -4.8348 -12.17093 4.44702 -0.4094 -16.40183 -5.72057 -7.91691 19.72651 99.96968 12.3279 0.70005 -22.79998 6.58096 4.26253 31.5432 -121.35973 19.97738 -3.46466 40.09444 -3.98857 -6.14139 -20.4981 -7.07516 -4.68837 -3.14489 43.6673 2.94313 -0.62624 -24.89871 -7.60376 4.20251 2.92667
0.00023 0 0.00107 27.12125 -25.22241 -3.15104 48.90749 -0.25951 -4.81202 -12.10224 4.53548 -0.41014 -16.36595 -5.69953 -8.01373 19.71179 100.23494 12.32587 0.76717 -22.70096 7.02356 2.7983 31.51728 -117.63462 18.96614 -2.91205 40.09858 -3.95225 -6.07719 -20.51564 -7.07622 -4.69245 -3.14888 43.68281 3.02807 -0.35793 -24.92164 -7.58822 4.18411 2.90823
0.00016 -6e-05 0.00135 27.14695 -25.19753 -3.16279 48.83934 -0.25751 -4.78855 -12.03341 4.62404 -0.41088 -16.32875 -5.67839 -8.11051 19.6949 100.50505 12.32457 0.8353 -22.60141 7.48362 1.27546 31.4939 -113.75895 17.91656 -2.33626 40.10207 -3.91601 -6.01388 -20.53324 -7.07716 -4.69637 -3.1528 43.69796 3.11334 -0.08835 -24.94481 -7.57269 4.16581 2.88972
8e-05 -0.00013 0.00162 27.17229 -25.17319 -3.17442 48.77181 -0.25542 -4.76575 -11.96475 4.71247 -0.41163 -16.29279 -5.65733 -8.20733 19.68001 100.77069 12.32263 0.9025 -22.50246 7.92824 -0.19563 31.46829 -110.01569 16.90074 -1.78083 40.10613 -3.87971 -5.94974 -20.55077 -7.0782 -4.70044 -3.15678 43.7134 3.1983 0.18011 -24.96775 -7.55715 4.14741 2.87126
-0 -0.00019 0.0019 27.19725 -25.14958 -3.18597 48.70493 -0.25324 -4.74364 -11.89608 4.80093 -0.41237 -16.25828 -5.63638 -8.30424 19.66757 101.03097 12.31975 0.96857 -22.40373 8.35143 -1.59456 31.43944 -106.45931 15.93231 -1.25425 40.11103 -3.84323 -5.88454 -20.56828 -7.0794 -4.70471 -3.16085 43.72936 3.28296 0.44717 -24.99047 -7.54159 4.12891 2.85288
-8e-05 -0.00026 0.00218 27.22457 -25.12195 -3.19821 48.63398 -0.25164 -4.71719 -11.82684 4.8898 -0.41313 -16.21521 -5.61484 -8.40076 19.64104 101.32244 12.32183 1.04119 -22.30221 8.89023 -3.3819 31.42769 -101.90291 14.70962 -0.5736 40.11153 -3.80748 -5.82534 -20.58608 -7.07978 -4.70786 -3.16443 43.74283 3.36961 0.72218 -25.01462 -7.52611 4.11105 2.83409
-0.00016 -0.00033 0.00244 27.24681 -25.10269 -3.20882 48.57184 -0.2488 -4.70015 -11.75922 4.97739 -0.41384 -16.19036 -5.59452 -8.49802 19.64422 101.54783 12.31374 1.09993 -22.20754 9.19007 -4.36704 31.38087 -99.40794 14.01156 -0.21034 40.12104 -3.77039 -5.75358 -20.60318 -7.08186 -4.71334 -3.16903 43.76122 3.45189 0.98044 -25.03564 -7.51048 4.09181 2.81616
-0.00022 -0.00038 0.00265 27.25573 -25.10749 -3.21644 48.53232 -0.24272 -4.70722 -11.69261 5.06515 -0.41443 -16.21482 -5.57773 -8.59783 19.72986 101.59145 12.27493 1.12106 -22.12386 8.78586 -2.98361 31.22845 -103.03354 14.86668 -0.79118 40.15778 -3.72781 -5.64583 -20.61907 -7.08888 -4.72567 -3.17679 43.79607 3.52342 1.19204 -25.04895 -7.4944 4.06913 2.80061
-0.00027 -0.00043 0.00284 27.25941 -25.12051 -3.22218 48.50196 -0.23538 -4.72409 -11.62835 5.15103 -0.41496 -16.25778 -5.56217 -8.6982 19.84521 101.56809 12.2264 1.12826 -22.0485 8.14998 -0.82334 31.04258 -108.6496 16.22913 -1.67819 40.20313 -3.68416 -5.52559 -20.63416 -7.09756 -4.74026 -3.18554 43.83539 3.59035 1.3868 -25.059 -7.47819 4.04503 2.78594
-0.00032 -0.00049 0.00303 27.2651 -25.12904 -3.22776 48.46842 -0.22852 -4.73757 -11.56511 5.23523 -0.41551 -16.29265 -5.5459 -8.79811 19.94625 101.57661 12.18419 1.14139 -21.97447 7.65249 0.86921 30.87808 -113.0437 17.28325 -2.37604 40.24285 -3.64225 -5.41227 -20.64912 -7.10527 -4.75349 -3.19362 43.87067 3.65856 1.58989 -25.06989 -7.46205 4.02132 2.77084
-0.00037 -0.00054 0.00324 27.27243 -25.1407 -3.23747 48.43066 -0.22202 -4.74649 -11.49267 5.32974 -0.41611 -16.32593 -5.53013 -8.89927 20.0505 101.58188 12.13404 1.15577 -21.87895 7.01748 3.03789 30.68732 -118.75521 18.66022 -3.28148 40.28969 -3.59529 -5.29433 -20.66605 -7.11384 -4.76808 -3.2026 43.91418 3.73015 1.79069 -25.08325 -7.4458 3.99858 2.75582
-0.00042 -0.00059 0.00342 27.27501 -25.14789 -3.23832 48.40396 -0.21449 -4.76735 -11.44044 5.40282 -0.4166 -16.36727 -5.51376 -8.99749 20.15542 101.57431 12.09797 1.16476 -21.83006 6.6106 4.41103 30.54352 -122.22781 19.49314 -3.83238 40.32395 -3.55831 -5.18223 -20.67884 -7.12107 -4.78044 -3.20999 43.94192 3.79363 1.99153 -25.09098 -7.42981 3.97362 2.7409
-0.00043 -0.00061 0.00357 27.2663 -25.13952 -3.21346 48.4048 -0.20431 -4.81775 -11.43985 5.41344 -0.41677 -16.42309 -5.49417 -9.09234 20.25166 101.58098 12.10465 1.15749 -21.90891 6.92063 3.28981 30.53624 -118.73494 18.62719 -3.28259 40.31934 -3.55166 -5.09711 -20.67916 -7.12372 -4.78548 -3.2122 43.92222 3.8357 2.20282 -25.08164 -7.41421 3.94188 2.72556
-0.00043 -0.00062 0.00369 27.25276 -25.12646 -3.18009 48.4166 -0.19318 -4.88003 -11.4606 5.40363 -0.41683 -16.4869 -5.47411 -9.1839 20.34785 101.5716 12.12563 1.1459 -22.03429 7.46286 1.36033 30.57775 -112.97346 17.20933 -2.37387 40.30205 -3.55468 -5.01721 -20.67563 -7.12502 -4.78829 -3.21283 43.88694 3.8698 2.41351 -25.06728 -7.39897 3.90818 2.71039
-0.00043 -0.00064 0.00383 27.24126 -25.11644 -3.15168 48.42391 -0.18255 -4.93751 -11.47346 5.40513 -0.41696 -16.54927 -5.45512 -9.27303 20.44655 101.54682 12.139 1.13974 -22.13756 7.87875 -0.128 30.59769 -108.44578 16.09183 -1.66026 40.29201 -3.55157 -4.92938 -20.67462 -7.12729 -4.79256 -3.21458 43.86074 3.90767 2.62048 -25.05658 -7.3838 3.87602 2.69543
-0.00044 -0.00065 0.00397 27.2308 -25.10331 -3.11846 48.42952 -0.17153 -4.99272 -11.47714 5.39646 -0.41701 -16.60337 -5.43273 -9.37635 20.53697 101.61246 12.15643 1.11953 -22.24483 8.37363 -1.89817 30.61349 -103.13684 14.78394 -0.82306 40.27641 -3.55551 -4.86311 -20.67015 -7.12825 -4.79513 -3.21481 43.82659 3.94479 2.84401 -25.0395 -7.3676 3.841 2.67923
-0.00044 -0.00067 0.00409 27.21636 -25.09489 -3.0934 48.44108 -0.16118 -5.05547 -11.50703 5.4061 -0.4172 -16.67593 -5.41707 -9.45233 20.64277 101.49067 12.16929 1.12641 -22.35515 8.76314 -3.28678 30.65048 -98.88363 13.73362 -0.15308 40.26876 -3.54737 -4.75517 -20.67221 -7.13139 -4.80052 -3.21765 43.80481 3.98159 3.03278 -25.03509 -7.35368 3.8116 2.66573
-0.00047 -0.0007 0.00415 27.19805 -25.10623 -3.09172 48.46715 -0.15228 -5.13563 -11.58681 5.45532 -0.4178 -16.79969 -5.42261 -9.42913 20.80203 100.82274 12.16283 1.22074 -22.45825 8.7979 -3.39928 30.7298 -98.15013 13.5378 -0.03957 40.29172 -3.50125 -4.5158 -20.6914 -7.1425 -4.81565 -3.22935 43.82591 4.01971 3.12844 -25.06255 -7.34575 3.79719 2.65896
-0.00049 -0.00074 0.00418 27.17454 -25.12195 -3.09876 48.49873 -0.14415 -5.2233 -11.69571 5.52729 -0.41855 -16.94035 -5.43477 -9.38399 20.97358 99.97321 12.15176 1.34047 -22.56322 8.7214 -3.10891 30.82978 -98.53826 13.61586 -0.10391 40.32298 -3.44325 -4.23755 -20.71782 -7.15547 -4.83337 -3.24347 43.8599 4.05762 3.18864 -25.10388 -7.34018 3.78877 2.65506
-0.00051 -0.00078 0.00421 27.14984 -25.13124 -3.10264 48.52715 -0.13617 -5.30744 -11.80226 5.5985 -0.41923 -17.07286 -5.44193 -9.36386 21.13337 99.22844 12.14513 1.44099 -22.67048 8.70113 -3.02251 30.92319 -98.37026 13.56094 -0.08071 40.34554 -3.39192 -3.98657 -20.74189 -7.16656 -4.84909 -3.25569 43.88371 4.09566 3.26348 -25.14155 -7.33366 3.77821 2.65023
-0.00056 -0.00082 0.00429 27.14104 -25.15684 -3.10291 48.55839 -0.12633 -5.39134 -11.86256 5.62596 -0.41988 -17.21129 -5.45631 -9.27655 21.32327 98.38904 12.12975 1.57346 -22.76746 8.66348 -2.87365 31.00618 -98.31979 13.52422 -0.07344 40.38455 -3.33479 -3.69374 -20.7611 -7.1822 -4.86852 -3.27136 43.92178 4.13386 3.34484 -25.16733 -7.32657 3.76485 2.64366
-0.00055 -0.00085 0.00427 27.09664 -25.15246 -3.11274 48.58535 -0.12019 -5.47882 -12.02712 5.75346 -0.42063 -17.33673 -5.45871 -9.32849 21.44831 97.70408 12.13048 1.64578 -22.88402 8.63438 -2.75129 31.11542 -98.3208 13.52026 -0.07997 40.39633 -3.28776 -3.48065 -20.79315 -7.18855 -4.88048 -3.28026 43.9377 4.17105 3.40378 -25.22191 -7.32132 3.75911 2.64158
-0.00031 -0.00084 0.004 26.96569 -25.0399 -3.14756 48.59312 -0.12654 -5.56174 -12.45953 6.12359 -0.42156 -17.45947 -5.4144 -9.73002 21.43648 97.48685 12.18373 1.54343 -23.06938 8.64139 -2.7774 31.29318 -98.19289 13.55427 -0.08183 40.29105 -3.26368 -3.48047 -20.85163 -7.17102 -4.8743 -3.27131 43.85399 4.21172 3.41456 -25.34709 -7.31954 3.77008 2.64973
-4e-05 -0.00083 0.00363 26.79665 -24.902 -3.19122 48.59578 -0.13553 -5.65027 -12.9969 6.5986 -0.4226 -17.56042 -5.36057 -10.27859 21.35186 97.43123 12.25177 1.38031 -23.27199 8.6632 -2.8451 31.49871 -98.08885 13.61173 -0.09317 40.16687 -3.25192 -3.56434 -20.92471 -7.14373 -4.8599 -3.25518 43.75503 4.25019 3.40402 -25.50195 -7.31972 3.78899 2.66252
